<svg width="1440" height="1395" viewBox="0 0 1440 1395" fill="none" xmlns="http://www.w3.org/2000/svg">
<path d="M-280 1377H-195.79V1376.62C-195.79 1364.62 -201.79 1358.62 -213.79 1358.62H-262C-274 1358.62 -280 1364.62 -280 1376.62V1377ZM-174.737 1377H-90.527V1319.4C-90.527 1307.4 -96.527 1301.4 -108.527 1301.4H-156.737C-168.737 1301.4 -174.737 1307.4 -174.737 1319.4V1377ZM-69.474 1377H14.736V1247.35C14.736 1235.35 8.73599 1229.35 -3.26401 1229.35H-51.474C-63.474 1229.35 -69.474 1235.35 -69.474 1247.35V1377ZM35.79 1377H120V1229.45C120 1217.45 114 1211.45 102 1211.45H53.79C41.79 1211.45 35.79 1217.45 35.79 1229.45V1377ZM141.053 1377H225.263V1175.29C225.263 1163.29 219.263 1157.29 207.263 1157.29H159.053C147.053 1157.29 141.053 1163.29 141.053 1175.29V1377ZM246.316 1377H330.526V1032.94C330.526 1020.94 324.526 1014.94 312.526 1014.94H264.316C252.316 1014.94 246.316 1020.94 246.316 1032.94V1377ZM351.579 1377H435.789V1080.11C435.789 1068.11 429.789 1062.11 417.789 1062.11H369.579C357.579 1062.11 351.579 1068.11 351.579 1080.11V1377ZM456.842 1377H541.052V1001.73C541.052 989.733 535.052 983.733 523.052 983.733H474.842C462.842 983.733 456.842 989.733 456.842 1001.73V1377ZM562.105 1377H646.315V1037.71C646.315 1025.71 640.315 1019.71 628.315 1019.71H580.105C568.105 1019.71 562.105 1025.71 562.105 1037.71V1377ZM667.368 1377H751.578V962.322C751.578 950.322 745.578 944.322 733.578 944.322H685.368C673.368 944.322 667.368 950.322 667.368 962.322V1377ZM772.632 1377H856.842V621.087C856.842 609.087 850.842 603.087 838.842 603.087H790.632C778.632 603.087 772.632 609.087 772.632 621.087V1377ZM877.895 1377H962.105V681.998C962.105 669.998 956.105 663.998 944.105 663.998H895.895C883.895 663.998 877.895 669.998 877.895 681.998V1377ZM983.158 1377H1067.37V479.95C1067.37 467.95 1061.37 461.95 1049.37 461.95H1001.16C989.158 461.95 983.158 467.95 983.158 479.95V1377ZM1088.42 1377H1172.63V427.716C1172.63 415.716 1166.63 409.716 1154.63 409.716H1106.42C1094.42 409.716 1088.42 415.716 1088.42 427.716V1377ZM1193.68 1377H1277.89V617.817C1277.89 605.817 1271.89 599.817 1259.89 599.817H1211.68C1199.68 599.817 1193.68 605.817 1193.68 617.817V1377ZM1298.95 1377H1383.16V575.328C1383.16 563.328 1377.16 557.328 1365.16 557.328H1316.95C1304.95 557.328 1298.95 563.328 1298.95 575.328V1377ZM1404.21 1377H1488.42V461.04C1488.42 449.04 1482.42 443.04 1470.42 443.04H1422.21C1410.21 443.04 1404.21 449.04 1404.21 461.04L1404.21 1377ZM1509.47 1377H1593.68V685.9C1593.68 673.9 1587.68 667.9 1575.68 667.9H1527.47C1515.47 667.9 1509.47 673.9 1509.47 685.9V1377ZM1614.74 1377H1698.95V18.626C1698.95 6.62598 1692.95 0.625977 1680.95 0.625977H1632.74C1620.74 0.625977 1614.74 6.62598 1614.74 18.626V1377Z" fill="url(#paint0_linear_13_126)" fill-opacity="0.52"/>
<g clip-path="url(#clip0_13_126)">
<path d="M1504 1213.33C1487.32 1208.82 1453.95 1212.27 1420.58 1190.75C1387.22 1169.23 1370.53 1134.03 1337.17 1105.73C1303.8 1077.43 1287.12 1070.52 1253.75 1049.24C1220.38 1027.97 1203.7 1000.92 1170.33 999.363C1136.97 997.81 1120.28 1037.73 1086.92 1041.48C1053.55 1045.23 1036.87 1057.8 1003.5 1018.13C970.134 978.45 953.451 869.696 920.084 843.099C886.718 816.5 870.035 902.239 836.668 885.138C803.301 868.037 786.618 775.467 753.251 757.592C719.885 739.717 703.202 770.98 669.835 795.763C636.468 820.547 619.785 869.012 586.418 881.509C553.052 894.007 536.369 929.162 503.002 858.25C469.635 787.338 452.952 541.436 419.585 526.952C386.219 512.467 369.536 788.066 336.169 785.827C302.802 783.588 286.119 615.89 252.752 515.758C219.386 415.626 202.703 307.732 169.336 285.17C135.969 262.607 119.286 402.101 85.9194 402.947C52.5529 403.793 19.1863 312.109 2.50293 289.399L1 1228H1504V1213.33Z" fill="url(#paint1_linear_13_126)" fill-opacity="0.101961"/>
<path d="M1504 1213.33C1487.32 1208.82 1453.95 1212.27 1420.58 1190.75C1387.22 1169.23 1370.53 1134.03 1337.17 1105.73C1303.8 1077.43 1287.12 1070.52 1253.75 1049.24C1220.38 1027.97 1203.7 1000.92 1170.33 999.363C1136.97 997.81 1120.28 1037.73 1086.92 1041.48C1053.55 1045.23 1036.87 1057.8 1003.5 1018.13C970.134 978.45 953.451 869.696 920.085 843.099C886.718 816.5 870.035 902.239 836.668 885.138C803.301 868.037 786.618 775.467 753.252 757.592C719.885 739.717 703.202 770.98 669.835 795.763C636.468 820.547 619.785 869.012 586.419 881.509C553.052 894.007 536.369 929.162 503.002 858.25C469.635 787.338 452.952 541.436 419.586 526.952C386.219 512.467 369.536 788.066 336.169 785.827C302.802 783.588 286.119 615.89 252.753 515.758C219.386 415.626 202.703 307.732 169.336 285.17C135.969 262.607 119.286 402.101 85.9196 402.947C52.553 403.793 19.1864 312.109 2.5031 289.399" stroke="#FFE8C0" stroke-width="2"/>
<path d="M1420.58 1195.47C1418.09 1195.47 1416.07 1193.36 1416.07 1190.75C1416.07 1188.15 1418.09 1186.03 1420.58 1186.03C1423.07 1186.03 1425.09 1188.15 1425.09 1190.75C1425.09 1193.36 1423.07 1195.47 1420.58 1195.47Z" fill="#FFE8C0"/>
<path d="M1337.17 1110.45C1334.68 1110.45 1332.66 1108.34 1332.66 1105.73C1332.66 1103.13 1334.68 1101.01 1337.17 1101.01C1339.66 1101.01 1341.68 1103.13 1341.68 1105.73C1341.68 1108.34 1339.66 1110.45 1337.17 1110.45Z" fill="#FFE8C0"/>
<path d="M1253.75 1053.96C1251.26 1053.96 1249.24 1051.85 1249.24 1049.24C1249.24 1046.64 1251.26 1044.52 1253.75 1044.52C1256.24 1044.52 1258.26 1046.64 1258.26 1049.24C1258.26 1051.85 1256.24 1053.96 1253.75 1053.96Z" fill="#FFE8C0"/>
<path d="M1170.33 1004.08C1167.84 1004.08 1165.83 1001.97 1165.83 999.363C1165.83 996.757 1167.84 994.645 1170.33 994.645C1172.82 994.645 1174.84 996.757 1174.84 999.363C1174.84 1001.97 1172.82 1004.08 1170.33 1004.08Z" fill="#FFE8C0"/>
<path d="M1086.92 1046.2C1084.43 1046.2 1082.41 1044.09 1082.41 1041.48C1082.41 1038.87 1084.43 1036.76 1086.92 1036.76C1089.41 1036.76 1091.43 1038.87 1091.43 1041.48C1091.43 1044.09 1089.41 1046.2 1086.92 1046.2Z" fill="#FFE8C0"/>
<path d="M1003.5 1022.85C1001.01 1022.85 998.992 1020.73 998.992 1018.13C998.992 1015.52 1001.01 1013.41 1003.5 1013.41C1005.99 1013.41 1008.01 1015.52 1008.01 1018.13C1008.01 1020.73 1005.99 1022.85 1003.5 1022.85Z" fill="#FFE8C0"/>
<path d="M920.085 847.817C917.594 847.817 915.576 845.704 915.576 843.098C915.576 840.492 917.594 838.38 920.085 838.38C922.575 838.38 924.594 840.492 924.594 843.098C924.594 845.704 922.575 847.817 920.085 847.817Z" fill="#FFE8C0"/>
<path d="M836.668 889.857C834.178 889.857 832.159 887.744 832.159 885.138C832.159 882.532 834.178 880.42 836.668 880.42C839.158 880.42 841.177 882.532 841.177 885.138C841.177 887.744 839.158 889.857 836.668 889.857Z" fill="#FFE8C0"/>
<path d="M753.251 762.311C750.761 762.311 748.742 760.198 748.742 757.592C748.742 754.986 750.761 752.874 753.251 752.874C755.742 752.874 757.76 754.986 757.76 757.592C757.76 760.198 755.742 762.311 753.251 762.311Z" fill="#FFE8C0"/>
<path d="M669.835 800.482C667.345 800.482 665.326 798.369 665.326 795.763C665.326 793.157 667.345 791.044 669.835 791.044C672.325 791.044 674.344 793.157 674.344 795.763C674.344 798.369 672.325 800.482 669.835 800.482Z" fill="#FFE8C0"/>
<path d="M586.418 886.227C583.928 886.227 581.909 884.115 581.909 881.509C581.909 878.903 583.928 876.79 586.418 876.79C588.909 876.79 590.927 878.903 590.927 881.509C590.927 884.115 588.909 886.227 586.418 886.227Z" fill="#FFE8C0"/>
<path d="M503.002 862.969C500.512 862.969 498.493 860.856 498.493 858.25C498.493 855.644 500.512 853.532 503.002 853.532C505.492 853.532 507.511 855.644 507.511 858.25C507.511 860.856 505.492 862.969 503.002 862.969Z" fill="#FFE8C0"/>
<path d="M419.586 531.67C417.095 531.67 415.077 529.558 415.077 526.952C415.077 524.346 417.095 522.233 419.586 522.233C422.076 522.233 424.095 524.346 424.095 526.952C424.095 529.558 422.076 531.67 419.586 531.67Z" fill="#FFE8C0"/>
<path d="M336.169 790.545C333.679 790.545 331.66 788.432 331.66 785.826C331.66 783.22 333.679 781.108 336.169 781.108C338.659 781.108 340.678 783.22 340.678 785.826C340.678 788.432 338.659 790.545 336.169 790.545Z" fill="#FFE8C0"/>
<path d="M252.753 520.477C250.262 520.477 248.244 518.364 248.244 515.758C248.244 513.152 250.262 511.04 252.753 511.04C255.243 511.04 257.262 513.152 257.262 515.758C257.262 518.364 255.243 520.477 252.753 520.477Z" fill="#FFE8C0"/>
<path d="M169.336 289.888C166.846 289.888 164.827 287.776 164.827 285.17C164.827 282.564 166.846 280.451 169.336 280.451C171.826 280.451 173.845 282.564 173.845 285.17C173.845 287.776 171.826 289.888 169.336 289.888Z" fill="#FFE8C0"/>
<path d="M85.9195 407.665C83.4292 407.665 81.4105 405.553 81.4105 402.947C81.4105 400.341 83.4292 398.228 85.9195 398.228C88.4097 398.228 90.4285 400.341 90.4285 402.947C90.4285 405.553 88.4097 407.665 85.9195 407.665Z" fill="#FFE8C0"/>
<path d="M2.50321 294.118C0.0129542 294.118 -2.00579 292.005 -2.00579 289.399C-2.00579 286.793 0.0129542 284.68 2.50321 284.68C4.99346 284.68 7.01221 286.793 7.01221 289.399C7.01221 292.005 4.99346 294.118 2.50321 294.118Z" fill="#FFE8C0"/>
</g>
<rect x="-86" y="275" width="1568" height="1120" fill="url(#paint2_radial_13_126)"/>
<defs>
<linearGradient id="paint0_linear_13_126" x1="709.474" y1="0.625977" x2="709.474" y2="1377" gradientUnits="userSpaceOnUse">
<stop stop-color="#9D9D9D"/>
<stop offset="0.735577" stop-color="#F2F2F2"/>
<stop offset="1" stop-color="white"/>
</linearGradient>
<linearGradient id="paint1_linear_13_126" x1="752.5" y1="282.701" x2="752.5" y2="1228" gradientUnits="userSpaceOnUse">
<stop/>
<stop offset="1" stop-color="white"/>
</linearGradient>
<radialGradient id="paint2_radial_13_126" cx="0" cy="0" r="1" gradientUnits="userSpaceOnUse" gradientTransform="translate(698 709) rotate(90) scale(753 828.119)">
<stop stop-color="white" stop-opacity="0"/>
<stop offset="1" stop-color="white"/>
</radialGradient>
<clipPath id="clip0_13_126">
<rect width="1503" height="1101" fill="white" transform="matrix(-1 0 0 1 1504 127)"/>
</clipPath>
</defs>
</svg>
